<svg width="800" height="800" viewBox="0 0 800 800" fill="none" xmlns="http://www.w3.org/2000/svg">
<g clip-path="url(#clip0_71_550)">
<path d="M572 0H228C102.667 0 0 102.667 0 228V572C0 697.333 102.667 800 228 800H572C697.333 800 800 697.333 800 572V228C800 102.667 697.333 0 572 0ZM773.333 572C773.333 682.667 682.666 773.333 572 773.333H228C117.333 773.333 26.6672 682.666 26.6672 572V228C26.6672 117.333 117.334 26.6672 228 26.6672H572C682.667 26.6672 773.333 117.334 773.333 228V572Z" fill="#FDF0DE"/>
<path d="M572 80H228C146.667 80 80 146.667 80 228V572C80 653.333 146.667 720 228 720H572C653.333 720 720 653.333 720 572V228C720 146.667 653.333 80 572 80ZM693.333 572C693.333 638.667 638.666 693.333 572 693.333H228C161.333 693.333 106.667 638.666 106.667 572V228C106.667 161.333 161.334 106.667 228 106.667H572C638.667 106.667 693.333 161.334 693.333 228V572Z" fill="#FDF0DE"/>
<path d="M400 186.667C282.667 186.667 186.667 282.667 186.667 400C186.667 517.333 282.667 613.333 400 613.333C517.333 613.333 613.333 517.333 613.333 400C613.333 282.667 517.333 186.667 400 186.667ZM400 586.667C297.333 586.667 213.333 502.667 213.333 400C213.333 297.333 297.333 213.333 400 213.333C502.667 213.333 586.667 297.333 586.667 400C586.667 502.667 502.667 586.667 400 586.667Z" fill="#FDF0DE"/>
<path d="M400 253.333C318.667 253.333 253.333 318.666 253.333 400C253.333 481.333 318.666 546.667 400 546.667C481.334 546.667 546.667 481.334 546.667 400C546.667 318.666 481.333 253.333 400 253.333ZM400 520C333.333 520 280 466.667 280 400C280 333.333 333.333 280 400 280C466.667 280 520 333.333 520 400C520 466.667 466.667 520 400 520Z" fill="#FDF0DE"/>
<path d="M613.333 146.667C590.666 146.667 573.333 164 573.333 186.667C573.333 209.334 590.666 226.667 613.333 226.667C636 226.667 653.333 209.334 653.333 186.667C653.333 164 636 146.667 613.333 146.667Z" fill="#FDF0DE"/>
</g>
<defs>
<clipPath id="clip0_71_550">
<rect width="800" height="800" fill="white"/>
</clipPath>
</defs>
</svg>
